<svg width="128" height="128" viewBox="0 0 128 128" fill="none" xmlns="http://www.w3.org/2000/svg">
<path d="M35.498 35.144L16.664 92.936V92.85C16.32 93.71 15.8327 94.4267 15.202 95C14.6287 95.516 13.912 95.774 13.052 95.774C12.5933 95.774 12.1347 95.7167 11.676 95.602C11.2747 95.5447 10.8447 95.4587 10.386 95.344H10.472C7.204 94.312 6 92.4773 6.86 89.84L26.468 30.242C26.7547 29.3247 27.242 28.5507 27.93 27.92C28.6753 27.2893 29.5353 26.9167 30.51 26.802C31.4847 26.63 32.4307 26.5153 33.348 26.458C34.2653 26.3433 34.982 26.286 35.498 26.286C36.014 26.286 36.7307 26.3433 37.648 26.458C38.5653 26.5153 39.5113 26.6013 40.486 26.716C41.2887 26.8307 42.0627 27.2607 42.808 28.006C43.6107 28.7513 44.2127 29.4967 44.614 30.242C47.8247 40.1033 51.064 50.0507 54.332 60.084C57.6573 70.06 60.9253 79.9787 64.136 89.84C64.9387 92.4773 63.7347 94.312 60.524 95.344C60.0653 95.4587 59.6353 95.5447 59.234 95.602C58.89 95.7167 58.4887 95.774 58.03 95.774C57.2273 95.774 56.482 95.516 55.794 95C55.1633 94.4267 54.7047 93.71 54.418 92.85V92.936L35.498 35.144ZM41.948 74.36C41.948 76.1947 41.2887 77.7713 39.97 79.09C38.7087 80.3513 37.1607 80.982 35.326 80.982C33.4913 80.982 31.9433 80.3513 30.682 79.09C29.4207 77.7713 28.79 76.1947 28.79 74.36C28.79 72.5253 29.4207 70.9773 30.682 69.716C31.9433 68.3973 33.4913 67.738 35.326 67.738C37.1607 67.738 38.7087 68.3973 39.97 69.716C41.2887 70.9773 41.948 72.5253 41.948 74.36ZM90.499 69.716C89.5244 69.716 88.7504 69.3433 88.177 68.598C87.661 67.7953 87.403 66.7347 87.403 65.416C87.403 62.492 88.607 61.03 91.015 61.03H100.131C102.252 61.03 103.743 60.428 104.603 59.224C105.52 58.02 105.979 56.7013 105.979 55.268V41.164C105.979 39.7307 105.52 38.412 104.603 37.208C103.743 36.004 102.252 35.402 100.131 35.402H82.071V91.56C82.071 94.312 80.351 95.688 76.911 95.688C73.5857 95.688 71.923 94.312 71.923 91.56V31.876C71.923 29.812 72.439 28.436 73.471 27.748C74.503 27.06 75.7644 26.716 77.255 26.716H102.367C103.8 26.716 105.32 27.0313 106.925 27.662C108.53 28.2927 110.078 29.0953 111.569 30.07H111.483C112.974 31.1593 114.12 32.5927 114.923 34.37C115.726 36.09 116.127 38.0967 116.127 40.39V55.956C116.127 60.6 114.579 64.0687 111.483 66.362C109.992 67.4513 108.473 68.2827 106.925 68.856C105.377 69.4293 103.858 69.716 102.367 69.716H90.499Z" fill="black"/>
</svg>
